<svg width="14" height="13" viewBox="0 0 14 13" fill="none" xmlns="http://www.w3.org/2000/svg">
    <path d="M7.94773 6.5L9.36918 5.07855C9.54361 4.90412 9.54361 4.62131 9.36918 4.44673L9.05327 4.13082C8.87884 3.95639 8.59602 3.95639 8.42145 4.13082L7 5.55227L5.57855 4.13082C5.40412 3.95639 5.12131 3.95639 4.94673 4.13082L4.63082 4.44673C4.45639 4.62116 4.45639 4.90398 4.63082 5.07855L6.05227 6.5L4.63082 7.92145C4.45639 8.09588 4.45639 8.37869 4.63082 8.55327L4.94673 8.86918C5.12116 9.04361 5.40412 9.04361 5.57855 8.86918L7 7.44773L8.42145 8.86918C8.59588 9.04361 8.87884 9.04361 9.05327 8.86918L9.36918 8.55327C9.54361 8.37884 9.54361 8.09602 9.36918 7.92145L7.94773 6.5Z" fill="#555"/>
    <rect x="1" y="0.5" width="12" height="12" rx="6" stroke="#555"/>
</svg>
