<svg width="30" height="27" viewBox="0 0 30 27" fill="none" xmlns="http://www.w3.org/2000/svg">
<g clip-path="url(#clip0_207_11)">
<path opacity="0.4" d="M25.8333 26.6667H19.1667C18.9457 26.6667 18.7337 26.5789 18.5774 26.4226C18.4211 26.2663 18.3333 26.0543 18.3333 25.8333V19.1667C18.3333 18.9456 18.2455 18.7337 18.0893 18.5774C17.933 18.4211 17.721 18.3333 17.5 18.3333H12.5C12.279 18.3333 12.067 18.4211 11.9107 18.5774C11.7545 18.7337 11.6667 18.9456 11.6667 19.1667V25.8333C11.6667 26.0543 11.5789 26.2663 11.4226 26.4226C11.2663 26.5789 11.0543 26.6667 10.8333 26.6667H4.16667C3.94566 26.6667 3.73369 26.5789 3.57741 26.4226C3.42113 26.2663 3.33334 26.0543 3.33334 25.8333V16.1979C3.42604 16.1349 3.53386 16.0995 3.61823 16.0234L15 5.98958L26.3927 16.0365C26.4729 16.1083 26.5781 16.1406 26.6667 16.2031V25.8333C26.6667 26.0543 26.5789 26.2663 26.4226 26.4226C26.2663 26.5789 26.0543 26.6667 25.8333 26.6667Z" fill="#00CD5E"/>
<path d="M27.4958 14.7854L15.5521 4.25052C15.3998 4.11621 15.2038 4.04209 15.0008 4.04209C14.7978 4.04209 14.6017 4.11621 14.4495 4.25052L2.50573 14.7859C2.34133 14.9336 2.12503 15.0099 1.9044 14.998C1.68377 14.9862 1.47686 14.8873 1.32917 14.7229L0.21354 13.4839C0.0659222 13.3195 -0.0103645 13.1032 0.0014534 12.8825C0.0132713 12.6619 0.112226 12.455 0.276561 12.3073L13.6099 0.536454C13.9914 0.191507 14.4875 0.000518799 15.0018 0.000518799C15.5162 0.000518799 16.0122 0.191507 16.3937 0.536454L21.6667 5.19115V2.5C21.6667 2.27898 21.7545 2.06702 21.9107 1.91074C22.067 1.75446 22.279 1.66666 22.5 1.66666H25.8333C26.0543 1.66666 26.2663 1.75446 26.4226 1.91074C26.5789 2.06702 26.6667 2.27898 26.6667 2.5V9.60573L29.7234 12.3052C29.8878 12.4528 29.9869 12.6597 29.9988 12.8803C30.0107 13.101 29.9345 13.3173 29.787 13.4818L28.6724 14.7224C28.5247 14.8867 28.3178 14.9857 28.0972 14.9975C27.8765 15.0093 27.6602 14.933 27.4958 14.7854V14.7854Z" fill="#0066F5"/>
</g>
<defs>
<clipPath id="clip0_207_11">
<rect width="30" height="26.6667" fill="white"/>
</clipPath>
</defs>
</svg>
