<svg width="30" height="31" viewBox="0 0 30 31" fill="none" xmlns="http://www.w3.org/2000/svg">
<g clip-path="url(#clip0_202_12)">
<path opacity="0.4" d="M22.5 9.8918H1.875C1.37772 9.8918 0.900806 9.69617 0.549175 9.34796C0.197544 8.99974 0 8.52746 0 8.035V2.46461C0 1.97216 0.197544 1.49988 0.549175 1.15166C0.900806 0.803445 1.37772 0.607819 1.875 0.607819L22.5 0.607819C22.9973 0.607819 23.4742 0.803445 23.8258 1.15166C24.1775 1.49988 24.375 1.97216 24.375 2.46461V8.035C24.375 8.52746 24.1775 8.99974 23.8258 9.34796C23.4742 9.69617 22.9973 9.8918 22.5 9.8918Z" fill="#00CD5E"/>
<path d="M30 8.035V11.7486C30 13.226 29.4074 14.6428 28.3525 15.6875C27.2976 16.7321 25.8668 17.319 24.375 17.319H15V19.1758C15.4973 19.1758 15.9742 19.3714 16.3258 19.7196C16.6775 20.0678 16.875 20.5401 16.875 21.0326V28.4598C16.875 28.9522 16.6775 29.4245 16.3258 29.7727C15.9742 30.1209 15.4973 30.3166 15 30.3166H11.25C10.7527 30.3166 10.2758 30.1209 9.92418 29.7727C9.57254 29.4245 9.375 28.9522 9.375 28.4598V21.0326C9.375 20.5401 9.57254 20.0678 9.92418 19.7196C10.2758 19.3714 10.7527 19.1758 11.25 19.1758V17.319C11.25 16.3341 11.6451 15.3895 12.3483 14.6931C13.0516 13.9966 14.0054 13.6054 15 13.6054H24.375C24.8723 13.6054 25.3492 13.4098 25.7008 13.0615C26.0525 12.7133 26.25 12.241 26.25 11.7486V4.32141C27.2446 4.32141 28.1984 4.71266 28.9016 5.4091C29.6049 6.10553 30 7.0501 30 8.035Z" fill="#0066F5"/>
</g>
<defs>
<clipPath id="clip0_202_12">
<rect width="30" height="29.7087" fill="white" transform="translate(0 0.607819)"/>
</clipPath>
</defs>
</svg>
