<svg width="30" height="31" viewBox="0 0 30 31" fill="none" xmlns="http://www.w3.org/2000/svg">
<g clip-path="url(#clip0_205_22)">
<path opacity="0.4" d="M22.5 22.2747C22.5 22.5233 22.4012 22.7618 22.2254 22.9376C22.0496 23.1134 21.8111 23.2122 21.5625 23.2122H19.6875C19.4389 23.2122 19.2004 23.1134 19.0246 22.9376C18.8488 22.7618 18.75 22.5233 18.75 22.2747V21.3372H11.25V22.2747C11.25 22.5233 11.1512 22.7618 10.9754 22.9376C10.7996 23.1134 10.5611 23.2122 10.3125 23.2122H8.4375C8.18886 23.2122 7.9504 23.1134 7.77459 22.9376C7.59877 22.7618 7.5 22.5233 7.5 22.2747V21.3372H2.44343e-08V26.9622C2.44343e-08 27.4595 0.197544 27.9364 0.549175 28.288C0.900806 28.6396 1.37772 28.8372 1.875 28.8372H28.125C28.6223 28.8372 29.0992 28.6396 29.4508 28.288C29.8025 27.9364 30 27.4595 30 26.9622V21.3372H22.5V22.2747ZM29.451 13.2882L26.7996 10.6368C26.6255 10.4626 26.4188 10.3244 26.1913 10.2301C25.9638 10.1358 25.7199 10.0872 25.4736 10.0872H4.52637C4.28012 10.0871 4.03628 10.1356 3.80877 10.2298C3.58126 10.324 3.37453 10.4621 3.20039 10.6362L0.549023 13.2882C0.374923 13.4623 0.236829 13.669 0.142627 13.8965C0.0484251 14.1241 -3.97276e-05 14.3679 2.44343e-08 14.6141V19.4622H7.5V18.5247C7.5 18.276 7.59877 18.0376 7.77459 17.8618C7.9504 17.686 8.18886 17.5872 8.4375 17.5872H10.3125C10.5611 17.5872 10.7996 17.686 10.9754 17.8618C11.1512 18.0376 11.25 18.276 11.25 18.5247V19.4622H18.75V18.5247C18.75 18.276 18.8488 18.0376 19.0246 17.8618C19.2004 17.686 19.4389 17.5872 19.6875 17.5872H21.5625C21.8111 17.5872 22.0496 17.686 22.2254 17.8618C22.4012 18.0376 22.5 18.276 22.5 18.5247V19.4622H30V14.6136C29.9999 14.1164 29.8024 13.6397 29.451 13.2882Z" fill="#00CD5E"/>
<path d="M19.6875 2.58719H10.3125C9.56658 2.58719 8.85121 2.8835 8.32376 3.41095C7.79632 3.9384 7.5 4.65377 7.5 5.39969V10.0872H11.25V6.33719H18.75V10.0872H22.5V5.39969C22.5 4.65377 22.2037 3.9384 21.6762 3.41095C21.1488 2.8835 20.4334 2.58719 19.6875 2.58719ZM10.3125 17.5872H8.4375C8.18886 17.5872 7.9504 17.686 7.77459 17.8618C7.59877 18.0376 7.5 18.276 7.5 18.5247V22.2747C7.5 22.5233 7.59877 22.7618 7.77459 22.9376C7.9504 23.1134 8.18886 23.2122 8.4375 23.2122H10.3125C10.5611 23.2122 10.7996 23.1134 10.9754 22.9376C11.1512 22.7618 11.25 22.5233 11.25 22.2747V18.5247C11.25 18.276 11.1512 18.0376 10.9754 17.8618C10.7996 17.686 10.5611 17.5872 10.3125 17.5872ZM21.5625 17.5872H19.6875C19.4389 17.5872 19.2004 17.686 19.0246 17.8618C18.8488 18.0376 18.75 18.276 18.75 18.5247V22.2747C18.75 22.5233 18.8488 22.7618 19.0246 22.9376C19.2004 23.1134 19.4389 23.2122 19.6875 23.2122H21.5625C21.8111 23.2122 22.0496 23.1134 22.2254 22.9376C22.4012 22.7618 22.5 22.5233 22.5 22.2747V18.5247C22.5 18.276 22.4012 18.0376 22.2254 17.8618C22.0496 17.686 21.8111 17.5872 21.5625 17.5872Z" fill="#0066F5"/>
</g>
<defs>
<clipPath id="clip0_205_22">
<rect width="30" height="30" fill="white" transform="translate(0 0.712189)"/>
</clipPath>
</defs>
</svg>
