<svg width="19" height="14" viewBox="0 0 19 14" fill="none" xmlns="http://www.w3.org/2000/svg">
<path d="M3.375 0.354126C1.51172 0.354126 0 1.86584 0 3.72913V10.4791C0 12.3424 1.51172 13.8541 3.375 13.8541H6.32812C6.53906 13.8541 6.75 13.6783 6.75 13.4323V12.5885C6.75 12.3776 6.53906 12.1666 6.32812 12.1666H3.375C2.42578 12.1666 1.6875 11.4283 1.6875 10.4791V3.72913C1.6875 2.81506 2.42578 2.04163 3.375 2.04163H6.32812C6.53906 2.04163 6.75 1.86584 6.75 1.61975V0.776001C6.75 0.565063 6.53906 0.354126 6.32812 0.354126H3.375ZM11.4961 1.05725L10.793 1.76038C10.6172 1.901 10.6172 2.18225 10.793 2.35803L14.7656 6.19006H6.04688C5.80078 6.19006 5.625 6.401 5.625 6.61194V7.59631C5.625 7.84241 5.80078 8.01819 6.04688 8.01819H14.7656L10.793 11.8854C10.6172 12.0612 10.6172 12.3424 10.793 12.483L11.4961 13.1862C11.6367 13.3619 11.918 13.3619 12.0938 13.1862L17.8594 7.42053C18.0352 7.24475 18.0352 6.99866 17.8594 6.82288L12.0938 1.05725C11.918 0.88147 11.6367 0.88147 11.4961 1.05725Z" fill="#222429"/>
</svg>
