<svg width="18" height="18" viewBox="0 0 18 18" fill="none" xmlns="http://www.w3.org/2000/svg">
<path d="M15.8906 8.43616L17.0156 7.80334C17.332 7.62756 17.5078 7.24084 17.4023 6.85413C17.0156 5.37756 16.207 4.04163 15.1523 2.95178C14.8711 2.70569 14.4492 2.63538 14.1328 2.81116L13.0078 3.47913C12.7266 3.26819 12.1992 2.95178 11.8477 2.81116V1.51038C11.8477 1.15881 11.5664 0.772095 11.2148 0.701782C9.77344 0.315063 8.19141 0.315063 6.75 0.701782C6.36328 0.807251 6.11719 1.12366 6.11719 1.51038V2.81116C5.76562 2.95178 5.23828 3.26819 4.95703 3.47913L3.83203 2.81116C3.51562 2.63538 3.09375 2.70569 2.8125 2.95178C1.75781 4.04163 0.949219 5.37756 0.5625 6.85413C0.457031 7.24084 0.632812 7.62756 0.949219 7.80334L2.07422 8.43616C2.03906 8.64709 2.03906 8.92834 2.03906 9.10413C2.03906 9.31506 2.03906 9.59631 2.07422 9.77209L0.949219 10.4401C0.632812 10.6158 0.457031 11.0026 0.5625 11.3893C0.949219 12.8658 1.75781 14.2018 2.8125 15.2916C3.09375 15.5377 3.51562 15.608 3.83203 15.4323L4.95703 14.7643C5.23828 14.9752 5.76562 15.2916 6.11719 15.4323V16.733C6.11719 17.0846 6.39844 17.4713 6.75 17.5416C8.19141 17.9283 9.77344 17.9283 11.2148 17.5416C11.6016 17.4362 11.8477 17.1198 11.8477 16.733V15.4323C12.1992 15.2916 12.7266 14.9752 13.0078 14.7643L14.1328 15.4323C14.4492 15.608 14.8711 15.5377 15.1523 15.2916C16.207 14.2018 17.0156 12.8658 17.4023 11.3893C17.5078 11.0026 17.332 10.6158 17.0156 10.4401L15.8906 9.77209C15.9258 9.35022 15.9258 8.89319 15.8906 8.43616ZM14.0273 10.6862L15.5742 11.5651C15.3633 12.1979 14.8008 13.1119 14.3789 13.6041L12.832 12.7252C11.707 13.6744 11.5664 13.7799 10.1602 14.2721V16.0651C9.84375 16.1002 9.31641 16.1705 9 16.1705C8.64844 16.1705 8.12109 16.1002 7.80469 16.0651V14.2721C6.39844 13.7799 6.22266 13.6744 5.13281 12.7252L3.58594 13.6041C3.16406 13.1119 2.60156 12.1979 2.39062 11.5651L3.9375 10.6862C3.65625 9.20959 3.65625 9.03381 3.9375 7.55725L2.39062 6.67834C2.67188 5.94006 3.05859 5.23694 3.58594 4.63928L5.13281 5.51819C6.25781 4.56897 6.39844 4.4635 7.80469 3.97131V2.17834C8.12109 2.14319 8.64844 2.07288 9 2.07288C9.31641 2.07288 9.84375 2.14319 10.1602 2.17834V3.97131C11.5664 4.4635 11.7422 4.56897 12.832 5.51819L14.3789 4.63928C14.8008 5.13147 15.3633 6.04553 15.5742 6.67834L14.0273 7.55725C14.3086 9.03381 14.3086 9.20959 14.0273 10.6862ZM9 5.72913C7.13672 5.72913 5.625 7.276 5.625 9.10413C5.625 10.9674 7.13672 12.4791 9 12.4791C10.8281 12.4791 12.375 10.9674 12.375 9.10413C12.375 7.276 10.8281 5.72913 9 5.72913ZM9 10.7916C8.05078 10.7916 7.3125 10.0533 7.3125 9.10413C7.3125 8.19006 8.05078 7.41663 9 7.41663C9.91406 7.41663 10.6875 8.19006 10.6875 9.10413C10.6875 10.0533 9.91406 10.7916 9 10.7916Z" fill="#222429"/>
</svg>
