<svg width="18" height="19" viewBox="0 0 18 19" fill="none" xmlns="http://www.w3.org/2000/svg">
<path d="M11.25 1.79163C14.0273 1.79163 16.3125 4.07678 16.3125 6.85413C16.3125 9.66663 14.0273 11.9166 11.25 11.9166C10.582 11.9166 9.91406 11.8112 9.35156 11.5651L7.875 13.0416H6.75V14.7291H5.0625V16.4166H1.6875V13.0416L6.39844 8.33069C6.25781 7.94397 6.1875 7.276 6.1875 6.88928V6.85413C6.1875 4.07678 8.4375 1.79163 11.25 1.79163ZM11.25 0.104126C7.48828 0.104126 4.5 3.12756 4.5 6.85413C4.5 7.17053 4.5 7.48694 4.53516 7.80334L0.246094 12.1276C0.105469 12.233 0 12.5143 0 12.7252V17.2604C0 17.7526 0.351562 18.1041 0.84375 18.1041H5.90625C6.36328 18.1041 6.75 17.7526 6.75 17.2604V16.4166H7.59375C8.05078 16.4166 8.4375 16.0651 8.4375 15.5729V14.8698L9.84375 13.4635C10.3008 13.569 10.7578 13.6041 11.25 13.6041C14.9766 13.6041 18 10.6158 18 6.85413C18 3.12756 14.9766 0.104126 11.25 0.104126ZM11.25 5.16663C11.25 6.11584 11.9883 6.85413 12.9375 6.85413C13.8516 6.85413 14.625 6.11584 14.625 5.16663C14.625 4.25256 13.8516 3.47913 12.9375 3.47913C11.9883 3.47913 11.25 4.25256 11.25 5.16663Z" fill="#222429"/>
</svg>
