<svg width="19" height="16" viewBox="0 0 19 16" fill="none" xmlns="http://www.w3.org/2000/svg">
<path d="M10 0.229126C5.00781 0.229126 1 3.53381 1 7.54163C1 9.22913 1.66797 10.776 2.82812 12.0065C2.33594 13.3776 1.24609 14.5729 1.21094 14.5729C0.964844 14.819 0.929688 15.1705 1.03516 15.4869C1.17578 15.8033 1.49219 15.9791 1.84375 15.9791C3.98828 15.9791 5.71094 15.1002 6.73047 14.3619C7.75 14.6783 8.83984 14.8541 10 14.8541C14.957 14.8541 19 11.5846 19 7.54163C19 3.53381 14.957 0.229126 10 0.229126ZM10 13.1666C9.05078 13.1666 8.10156 13.026 7.22266 12.7448L6.41406 12.4987L5.74609 12.9908C5.25391 13.3424 4.55078 13.7291 3.70703 14.0104C3.98828 13.5885 4.23438 13.0963 4.41016 12.6041L4.79688 11.6198L4.05859 10.8463C3.42578 10.1783 2.6875 9.05334 2.6875 7.54163C2.6875 4.44788 5.95703 1.91663 10 1.91663C14.0078 1.91663 17.3125 4.44788 17.3125 7.54163C17.3125 10.6705 14.0078 13.1666 10 13.1666Z" fill="#F5314B"/>
</svg>
