<svg width="18" height="16" viewBox="0 0 18 16" fill="none" xmlns="http://www.w3.org/2000/svg">
<path d="M2.8125 0.791626H0.5625C0.246094 0.791626 0 1.07288 0 1.35413V3.60413C0 3.92053 0.246094 4.16663 0.5625 4.16663H2.8125C3.09375 4.16663 3.375 3.92053 3.375 3.60413V1.35413C3.375 1.07288 3.09375 0.791626 2.8125 0.791626ZM2.8125 6.41663H0.5625C0.246094 6.41663 0 6.69788 0 6.97913V9.22913C0 9.54553 0.246094 9.79163 0.5625 9.79163H2.8125C3.09375 9.79163 3.375 9.54553 3.375 9.22913V6.97913C3.375 6.69788 3.09375 6.41663 2.8125 6.41663ZM2.8125 12.0416H0.5625C0.246094 12.0416 0 12.3229 0 12.6041V14.8541C0 15.1705 0.246094 15.4166 0.5625 15.4166H2.8125C3.09375 15.4166 3.375 15.1705 3.375 14.8541V12.6041C3.375 12.3229 3.09375 12.0416 2.8125 12.0416ZM17.4375 7.26038H6.1875C5.87109 7.26038 5.625 7.54163 5.625 7.82288V8.38538C5.625 8.70178 5.87109 8.94788 6.1875 8.94788H17.4375C17.7188 8.94788 18 8.70178 18 8.38538V7.82288C18 7.54163 17.7188 7.26038 17.4375 7.26038ZM17.4375 12.8854H6.1875C5.87109 12.8854 5.625 13.1666 5.625 13.4479V14.0104C5.625 14.3268 5.87109 14.5729 6.1875 14.5729H17.4375C17.7188 14.5729 18 14.3268 18 14.0104V13.4479C18 13.1666 17.7188 12.8854 17.4375 12.8854ZM17.4375 1.63538H6.1875C5.87109 1.63538 5.625 1.91663 5.625 2.19788V2.76038C5.625 3.07678 5.87109 3.32288 6.1875 3.32288H17.4375C17.7188 3.32288 18 3.07678 18 2.76038V2.19788C18 1.91663 17.7188 1.63538 17.4375 1.63538Z" fill="#222429"/>
</svg>
