<svg width="19" height="17" viewBox="0 0 19 17" fill="none" xmlns="http://www.w3.org/2000/svg">
<path d="M16.5002 12.8352C15.5002 11.8352 14.2002 10.9352 12.8002 10.5352C14.3002 9.53523 15.2002 7.83523 15.2002 5.93523C15.2002 2.83523 12.7002 0.235229 9.50019 0.235229C6.30019 0.235229 3.9002 2.73523 3.9002 5.93523C3.9002 7.93523 4.8002 9.53523 6.3002 10.5352C4.9002 11.0352 3.7002 11.8352 2.6002 12.8352C1.5002 13.9352 0.700195 15.2352 0.200195 16.7352C0.700195 16.7352 1.3002 16.7352 1.8002 16.7352C3.0002 13.6352 6.00019 11.4352 9.50019 11.4352C13.0002 11.4352 16.0002 13.6352 17.2002 16.7352C17.8002 16.7352 18.4002 16.7352 19.0002 16.7352C18.4002 15.3352 17.6002 13.9352 16.5002 12.8352ZM9.60019 9.93523C7.4002 9.93523 5.5002 8.03523 5.5002 5.83523C5.5002 3.63523 7.4002 1.73523 9.60019 1.73523C11.8002 1.73523 13.7002 3.63523 13.7002 5.83523C13.7002 8.13523 11.9002 9.93523 9.60019 9.93523Z" fill="#222429"/>
</svg>
