<svg width="12" height="17" viewBox="0 0 12 17" fill="none" xmlns="http://www.w3.org/2000/svg">
<path d="M5.375 16.1727C5.65625 16.6102 6.3125 16.6102 6.59375 16.1727C11.1562 9.61023 12 8.92273 12 6.48523C12 3.17273 9.3125 0.485229 6 0.485229C2.65625 0.485229 0 3.17273 0 6.48523C0 8.92273 0.8125 9.61023 5.375 16.1727ZM6 8.98523C4.59375 8.98523 3.5 7.89148 3.5 6.48523C3.5 5.11023 4.59375 3.98523 6 3.98523C7.375 3.98523 8.5 5.11023 8.5 6.48523C8.5 7.89148 7.375 8.98523 6 8.98523Z" fill="#00CD5E"/>
</svg>
