<svg width="20" height="18" viewBox="0 0 20 18" fill="none" xmlns="http://www.w3.org/2000/svg">
<path d="M17.1016 2.38928C15.0625 0.666626 11.9336 0.91272 10 2.91663C8.03125 0.91272 4.90234 0.666626 2.86328 2.38928C0.226562 4.60413 0.613281 8.22522 2.51172 10.1588L8.66406 16.4518C9.01562 16.8033 9.47266 17.0143 10 17.0143C10.4922 17.0143 10.9492 16.8033 11.3008 16.4518L17.4883 10.1588C19.3516 8.22522 19.7383 4.60413 17.1016 2.38928ZM16.2578 8.9635L10.1055 15.2565C10.0352 15.3268 9.96484 15.3268 9.85938 15.2565L3.70703 8.9635C2.40625 7.66272 2.16016 5.20178 3.95312 3.69006C5.32422 2.52991 7.43359 2.70569 8.76953 4.04163L10 5.30725L11.2305 4.04163C12.5312 2.70569 14.6406 2.52991 16.0117 3.65491C17.8047 5.20178 17.5586 7.66272 16.2578 8.9635Z" fill="#222429"/>
</svg>
