<svg width="19" height="17" viewBox="0 0 19 17" fill="none" xmlns="http://www.w3.org/2000/svg">
<path d="M9.2002 0.360229C4.20801 0.360229 0.200195 3.66492 0.200195 7.67273C0.200195 9.36023 0.868164 10.9071 2.02832 12.1376C1.53613 13.5087 0.446289 14.704 0.411133 14.704C0.165039 14.9501 0.129883 15.3016 0.235352 15.618C0.375977 15.9344 0.692383 16.1102 1.04395 16.1102C3.18848 16.1102 4.91113 15.2313 5.93066 14.493C6.9502 14.8094 8.04004 14.9852 9.2002 14.9852C14.1572 14.9852 18.2002 11.7157 18.2002 7.67273C18.2002 3.66492 14.1572 0.360229 9.2002 0.360229ZM9.2002 13.2977C8.25098 13.2977 7.30176 13.1571 6.42285 12.8759L5.61426 12.6298L4.94629 13.1219C4.4541 13.4735 3.75098 13.8602 2.90723 14.1415C3.18848 13.7196 3.43457 13.2274 3.61035 12.7352L3.99707 11.7509L3.25879 10.9774C2.62598 10.3094 1.8877 9.18445 1.8877 7.67273C1.8877 4.57898 5.15723 2.04773 9.2002 2.04773C13.208 2.04773 16.5127 4.57898 16.5127 7.67273C16.5127 10.8016 13.208 13.2977 9.2002 13.2977Z" fill="#222429"/>
</svg>
