<svg width="13" height="12" viewBox="0 0 13 12" fill="none" xmlns="http://www.w3.org/2000/svg">
<path opacity="0.8" d="M12.8647 3.51013C12.8647 2.90076 12.3491 2.38513 11.7397 2.38513H9.67725L9.37256 1.63513C9.2085 1.18982 8.78662 0.885132 8.31787 0.885132H5.38818C4.91943 0.885132 4.49756 1.18982 4.3335 1.63513L4.05225 2.38513H1.98975C1.35693 2.38513 0.864746 2.90076 0.864746 3.51013V10.2601C0.864746 10.8929 1.35693 11.3851 1.98975 11.3851H11.7397C12.3491 11.3851 12.8647 10.8929 12.8647 10.2601V3.51013ZM9.67725 6.88513C9.67725 8.45544 8.41162 9.69763 6.86475 9.69763C5.29443 9.69763 4.05225 8.45544 4.05225 6.88513C4.05225 5.33826 5.29443 4.07263 6.86475 4.07263C8.41162 4.07263 9.67725 5.33826 9.67725 6.88513ZM8.92725 6.88513C8.92725 5.76013 7.98975 4.82263 6.86475 4.82263C5.71631 4.82263 4.80225 5.76013 4.80225 6.88513C4.80225 8.03357 5.71631 8.94763 6.86475 8.94763C7.98975 8.94763 8.92725 8.03357 8.92725 6.88513Z" fill="white"/>
</svg>
