<svg width="376" height="360" viewBox="0 0 376 360" fill="none" xmlns="http://www.w3.org/2000/svg">
<path d="M275.043 276.181L273.553 276.46L271.183 267.053C270.986 266.27 270.824 265.525 270.698 264.818C270.601 264.969 270.49 265.128 270.365 265.296C270.241 265.465 269.659 266.188 268.619 267.467L267.55 266.589L270.431 263.223L271.719 262.982L275.043 276.181Z" fill="white"/>
<path fill-rule="evenodd" clip-rule="evenodd" d="M14.4241 89.2537C14.4241 89.2537 31.8951 106.418 23.2794 120.979C23.2794 120.979 30.6118 109.667 54.7422 122.338C54.7422 122.338 40.1207 109.366 43.9967 90.2987C43.9967 90.2987 37.0854 100.789 14.4257 89.2534" fill="#FEF38E"/>
<path fill-rule="evenodd" clip-rule="evenodd" d="M14.4241 89.2537C14.4241 89.2537 31.8951 106.418 23.2794 120.979C23.2794 120.979 30.6118 109.667 54.7422 122.338C54.7422 122.338 40.1207 109.366 43.9967 90.2987C43.9967 90.2987 37.0854 100.789 14.4257 89.2534L14.4241 89.2537Z" stroke="#001A34" stroke-width="3" stroke-linecap="square" stroke-linejoin="bevel"/>
<path fill-rule="evenodd" clip-rule="evenodd" d="M248.497 6.48527C248.497 6.48527 241.726 37.3195 217.848 36.1198C217.848 36.1198 236.889 37.8017 240.58 73.6818C240.58 73.6818 244.602 48.7205 270.135 41.6493C270.135 41.6493 252.391 39.9615 248.497 6.48527Z" fill="#FEF38E"/>
<path fill-rule="evenodd" clip-rule="evenodd" d="M248.497 6.48527C248.497 6.48527 241.726 37.3195 217.848 36.1198C217.848 36.1198 236.889 37.8017 240.58 73.6818C240.58 73.6818 244.602 48.7205 270.135 41.6493C270.135 41.6493 252.391 39.9615 248.497 6.48527V6.48527Z" stroke="#001A34" stroke-width="3" stroke-linecap="square" stroke-linejoin="bevel"/>
<path fill-rule="evenodd" clip-rule="evenodd" d="M335.972 187.519C335.972 187.519 325.866 206.74 309.684 201.771C309.684 201.771 322.461 206.213 318.646 230.602C318.646 230.602 325.824 214.787 344.608 214.57C344.608 214.57 332.721 210.351 335.972 187.519Z" fill="#FEF38E"/>
<path fill-rule="evenodd" clip-rule="evenodd" d="M335.972 187.519C335.972 187.519 325.866 206.74 309.684 201.771C309.684 201.771 322.461 206.213 318.646 230.602C318.646 230.602 325.824 214.787 344.608 214.57C344.608 214.57 332.721 210.351 335.972 187.519V187.519Z" stroke="#001A34" stroke-width="3" stroke-linecap="square" stroke-linejoin="bevel"/>
<path fill-rule="evenodd" clip-rule="evenodd" d="M283.054 286.973C230.485 310.406 180.056 336.922 124.652 354.41C117.826 278.966 82.5775 211.661 49.1855 143.324C49.1855 143.324 172.414 95.3624 189.123 85.1298C189.123 85.1298 219.617 113.697 267.397 237.553C273.643 253.753 278.873 270.26 283.054 286.973Z" fill="#EFF4F7"/>
<path fill-rule="evenodd" clip-rule="evenodd" d="M283.054 286.973C230.485 310.406 180.056 336.922 124.652 354.41C117.826 278.966 82.5775 211.661 49.1855 143.324C49.1855 143.324 172.414 95.3624 189.123 85.1298C189.123 85.1298 219.617 113.697 267.397 237.553C273.643 253.753 278.873 270.26 283.054 286.973V286.973Z" stroke="#001A36" stroke-width="3"/>
<path fill-rule="evenodd" clip-rule="evenodd" d="M209.194 139.851C217.045 156.841 211.087 176.175 194.521 183.545C177.954 190.915 160.326 181.475 152.641 164.625C144.958 147.775 150.362 129.287 166.836 122.198C183.31 115.11 201.343 122.86 209.194 139.851Z" fill="#0066F5"/>
<path d="M131.503 260.557C151.536 252.957 170.991 244.093 190.144 234.73M205.885 139.621C213.648 156.458 207.735 175.612 191.326 182.908C174.916 190.204 157.467 180.844 149.869 164.145C142.272 147.447 147.636 129.13 163.954 122.114C180.271 115.097 198.122 122.783 205.885 139.621V139.621ZM126.748 248.426C146.762 240.655 166.229 231.729 185.44 222.358L126.748 248.426ZM134.909 274.967C155.453 267.143 175.431 258.3 195.074 248.66L134.909 274.967Z" stroke="#001A36" stroke-width="2.682" stroke-linecap="square"/>
<path fill-rule="evenodd" clip-rule="evenodd" d="M235.763 229.73C233.921 235.253 229.975 257.488 222.06 256.53C221.248 256.431 220.49 256.992 220.267 257.728L219.834 259.174L219.633 258.366C219.221 256.7 216.39 256.253 216.095 258.081C214.995 264.855 213.894 271.628 212.796 278.403L208.12 254.887C207.657 252.558 204.109 253.23 204.572 255.552L211.222 288.993C211.562 290.709 214.471 291.055 214.76 289.278L218.34 267.219C219.218 268.231 221.043 268.121 221.46 266.733C222.872 262.037 222.931 261.79 226.635 259.748C228.415 258.763 229.527 257.708 230.626 255.975C235.048 248.996 236.668 238.827 239.292 230.965C240.019 228.782 236.488 227.56 235.763 229.73Z" fill="#001A36"/>
</svg>
