<svg width="159" height="44" fill="none" xmlns="http://www.w3.org/2000/svg"><path d="M0 14C0 6.268 6.268 0 14 0h131c7.732 0 14 6.268 14 14v16c0 7.732-6.268 14-14 14H14C6.268 44 0 37.732 0 30V14z" fill="#7D2AEB"/><path d="M83.086 28.24v-1.865h.847c.353 0 .645-.06.874-.178.234-.12.425-.28.572-.48.151-.206.277-.43.378-.673l.2-.5L81 14h2.258l3.697 8.122L90.246 14h2.23l-4.874 11.614a8.194 8.194 0 0 1-.716 1.296c-.266.398-.621.72-1.067.967-.445.243-1.035.364-1.77.364h-.963zM97.327 28.261c-1.023 0-1.905-.23-2.644-.692a4.592 4.592 0 0 1-1.693-1.928c-.395-.819-.592-1.756-.592-2.813 0-1.07.202-2.014.605-2.833.404-.823.974-1.465 1.708-1.927.734-.462 1.6-.693 2.595-.693.804 0 1.52.149 2.148.446a3.855 3.855 0 0 1 1.522 1.235c.39.53.622 1.15.695 1.859h-2.003a2.39 2.39 0 0 0-.758-1.276c-.39-.357-.913-.535-1.57-.535-.573 0-1.076.15-1.507.452-.427.298-.76.723-.998 1.276-.239.55-.358 1.198-.358 1.948 0 .769.117 1.432.35 1.99.235.558.565.99.992 1.296.432.307.939.46 1.522.46.39 0 .743-.071 1.06-.213.321-.146.59-.354.806-.624.22-.27.374-.595.46-.974h2.004a3.863 3.863 0 0 1-.668 1.825 3.83 3.83 0 0 1-1.493 1.262c-.62.306-1.348.46-2.183.46zM103.33 28.049l-.006-1.777h.378c.294 0 .54-.062.737-.185.202-.128.367-.343.496-.645.128-.302.227-.718.296-1.248.068-.535.119-1.208.151-2.017l.186-4.665h7.38V28.05h-2.017v-8.767h-3.456l-.165 3.58a14.316 14.316 0 0 1-.269 2.278c-.133.65-.328 1.192-.585 1.626-.257.43-.587.752-.991.967-.404.21-.895.316-1.474.316h-.661zM116.907 32c-.307 0-.587-.025-.84-.076a2.633 2.633 0 0 1-.564-.15l.495-1.681c.377.1.712.144 1.005.13.294-.013.553-.123.778-.329.23-.206.432-.542.606-1.008l.255-.7-3.869-10.674h2.203l2.678 8.177h.11l2.678-8.177h2.21l-4.358 11.943a4.764 4.764 0 0 1-.771 1.393 2.995 2.995 0 0 1-1.115.864c-.432.192-.932.288-1.501.288zM133.639 17.512v1.77h-4.73v8.767h-2.031V17.512h6.761zM138.122 25.174l4.661-7.662H145V28.05h-2.017v-7.67l-4.641 7.67h-2.237V17.512h2.017v7.662z" fill="#fff"/><path d="M74.649 13.829c-2.63-2.849-7.013-3.068-9.862-.438l-.877.767-3.616 3.287-6.575 6.027-.11.11 9.424 10.3L74.21 23.69c2.85-2.63 3.069-7.013.439-9.862z" fill="url(#a)"/><path d="m63.91 14.158-.767-.877c-2.63-2.849-7.013-3.068-9.862-.438s-3.068 7.013-.438 9.862c.219.329.548.548.767.876l6.684-6.136 2.74 2.959c2.191 2.191 4.492 1.643 6.245.11.22-.22.22-.439 0-.658l-5.369-5.698zM18.523 16.402H14v-2.427h11.756v2.427h-4.523v11.334h-2.71V16.402z" fill="#fff"/><path d="M33.508 17.415h2.71l-6.077 14.908h-2.51l1.773-4.673-4.344-10.235h2.81l2.829 7.024 2.81-7.024zM40.549 19.709h-3.527v-2.294h9.764v2.294h-3.527v8.027h-2.71v-8.027z" fill="#fff"/><defs><linearGradient id="a" x1="54.008" y1="20.88" x2="75.71" y2="24.108" gradientUnits="userSpaceOnUse"><stop stop-color="#9747FF"/><stop offset="1" stop-color="#C6C"/></linearGradient></defs></svg>