<svg width="16" height="16" viewBox="0 0 16 16" fill="none" xmlns="http://www.w3.org/2000/svg">
    <path d="M13.5703 9.70099H12.6328C12.3691 9.70099 12.1641 9.93536 12.1641 10.1697V13.451H2.78906V4.07599H7.00781C7.24219 4.07599 7.47656 3.87091 7.47656 3.60724V2.66974C7.47656 2.43536 7.24219 2.20099 7.00781 2.20099H2.32031C1.5293 2.20099 0.914062 2.84552 0.914062 3.60724V13.9197C0.914062 14.7108 1.5293 15.326 2.32031 15.326H12.6328C13.3945 15.326 14.0391 14.7108 14.0391 13.9197V10.1697C14.0391 9.93536 13.8047 9.70099 13.5703 9.70099ZM15.2109 0.325989H11.4609C10.8164 0.325989 10.4941 1.08771 10.9629 1.52716L11.9883 2.58185L4.86914 9.73029C4.72266 9.84747 4.63477 10.0233 4.63477 10.2283C4.63477 10.4334 4.72266 10.6092 4.86914 10.7264L5.51367 11.3709C5.66016 11.5174 5.83594 11.6053 6.01172 11.6053C6.2168 11.6053 6.39258 11.5174 6.50977 11.3709L13.6582 4.25177L14.7129 5.27716C15.1523 5.71661 15.9141 5.42365 15.9141 4.77911V1.02911C15.9141 0.648254 15.5918 0.325989 15.2109 0.325989Z" fill="#0066F5"/>
</svg>
