<?xml version="1.0" standalone="no"?>
<!DOCTYPE svg PUBLIC "-//W3C//DTD SVG 20010904//EN"
 "http://www.w3.org/TR/2001/REC-SVG-20010904/DTD/svg10.dtd">
<svg version="1.0" xmlns="http://www.w3.org/2000/svg"
 width="2544.000000pt" height="2544.000000pt" viewBox="0 0 2544.000000 2544.000000"
 preserveAspectRatio="xMidYMid meet">
<metadata>
Created by potrace 1.14, written by Peter Selinger 2001-2017
</metadata>
<g transform="translate(0.000000,2544.000000) scale(0.100000,-0.100000)"
fill="#000000" stroke="none">
<path d="M2079 16236 c-2 -3 -31 -6 -64 -7 -33 -2 -64 -5 -70 -8 -5 -3 -19 -6
-30 -7 -27 -2 -140 -21 -170 -28 -5 -2 -23 -6 -40 -10 -66 -17 -231 -69 -250
-79 -11 -6 -29 -12 -40 -14 -31 -5 -349 -165 -365 -184 -3 -3 -30 -22 -60 -41
-88 -56 -218 -162 -318 -260 -50 -49 -92 -92 -92 -95 0 -3 -8 -13 -18 -22 -14
-13 -100 -117 -130 -156 -33 -45 -129 -197 -150 -238 -15 -29 -30 -53 -34 -55
-5 -2 -8 -12 -8 -22 0 -9 -7 -23 -15 -30 -8 -7 -15 -18 -15 -24 0 -7 -11 -36
-25 -64 -14 -29 -25 -54 -25 -56 0 -3 -5 -17 -12 -33 -13 -32 -10 -25 -40
-123 -12 -41 -25 -77 -28 -80 -3 -3 -6 -14 -8 -25 -2 -11 -9 -47 -17 -81 -9
-33 -18 -81 -21 -105 -3 -24 -7 -49 -9 -56 -2 -7 -8 -45 -12 -85 -10 -94 -11
-2996 0 -3063 29 -192 43 -260 78 -376 29 -100 93 -268 123 -324 9 -16 16 -34
16 -40 0 -5 9 -21 20 -35 11 -14 20 -33 20 -42 0 -10 4 -18 8 -18 5 0 14 -12
21 -27 20 -43 153 -238 205 -300 122 -145 261 -276 401 -381 39 -28 75 -56 82
-62 7 -5 15 -10 18 -10 4 0 26 -13 49 -29 68 -47 243 -136 353 -180 123 -49
302 -103 314 -95 5 3 9 0 9 -7 0 -7 3 -10 6 -7 3 4 20 2 37 -3 18 -5 52 -12
77 -14 25 -3 56 -8 70 -11 14 -3 48 -8 75 -12 70 -10 21378 -9 21445 1 165 23
187 27 248 41 9 2 31 7 47 11 62 14 201 56 217 65 10 6 22 10 28 10 6 0 32 9
58 21 91 40 157 71 177 82 11 6 43 22 70 36 28 14 55 29 60 34 6 4 46 31 90
59 44 29 85 57 91 63 6 5 22 17 34 25 89 61 295 261 385 376 11 14 27 33 35
44 64 79 164 243 230 375 57 116 133 311 145 375 2 8 4 17 6 20 1 3 3 10 4 15
1 6 7 28 13 50 11 39 13 51 26 125 12 69 16 96 23 155 10 75 11 2982 1 3050
-18 128 -18 131 -34 205 -3 14 -6 33 -7 43 -1 9 -5 17 -10 17 -4 0 -6 4 -3 9
13 21 -108 373 -151 438 -8 13 -12 23 -8 23 4 0 2 6 -5 14 -6 8 -26 44 -44 79
-19 36 -48 85 -65 110 -17 25 -31 48 -31 52 0 3 -5 11 -10 18 -6 7 -34 44 -62
82 -59 79 -61 81 -107 133 -123 137 -223 231 -346 322 -33 25 -62 47 -65 50
-3 3 -17 11 -32 19 -16 8 -28 18 -28 23 0 4 -5 8 -11 8 -6 0 -29 12 -52 28
-23 15 -64 38 -92 52 -27 14 -51 28 -53 33 -2 4 -9 7 -15 7 -7 0 -25 7 -42 16
-70 37 -309 125 -378 139 -10 2 -26 6 -35 9 -9 3 -28 7 -42 10 -14 2 -43 8
-65 14 -22 6 -67 13 -100 17 -32 4 -68 10 -80 13 -22 7 -21369 15 -21376 8z"/>
</g>
</svg>
