<svg width="17" height="17" viewBox="0 0 17 17" fill="none" xmlns="http://www.w3.org/2000/svg">
<g clip-path="url(#clip0_170:8)">
<path d="M8.11503 14.5C4.27503 14.5 1.15503 11.38 1.15503 7.54002C1.15503 3.70002 4.27503 0.580017 8.11503 0.580017C11.955 0.580017 15.075 3.70002 15.075 7.54002C15.075 11.38 11.955 14.5 8.11503 14.5ZM8.11503 1.70002C4.91503 1.70002 2.27503 4.34002 2.27503 7.54002C2.27503 10.74 4.91503 13.38 8.11503 13.38C11.315 13.38 13.955 10.74 13.955 7.54002C13.955 4.34002 11.315 1.70002 8.11503 1.70002Z" fill="#222429"/>
<path d="M16.3551 16.42C16.1951 16.42 16.0351 16.34 15.9551 16.26L12.1951 12.5C11.9551 12.26 11.9551 11.94 12.1951 11.7C12.4351 11.46 12.7551 11.46 12.9951 11.7L16.7551 15.46C16.9951 15.7 16.9951 16.02 16.7551 16.26C16.6751 16.34 16.5151 16.42 16.3551 16.42Z" fill="#222429"/>
</g>
<defs>
<clipPath id="clip0_170:8">
<rect width="16" height="16" fill="white" transform="translate(0.995117 0.5)"/>
</clipPath>
</defs>
</svg>
