<svg  width="20" height="18" viewBox="0 0 20 18" fill="none" xmlns="http://www.w3.org/2000/svg">
<path class="svg-icon" d="M17.3018 2.52039C15.2627 0.797729 12.1338 1.04382 10.2002 3.04773C8.23145 1.04382 5.10254 0.797729 3.06348 2.52039C0.426758 4.73523 0.813477 8.35632 2.71191 10.2899L8.86426 16.5829C9.21582 16.9344 9.67285 17.1454 10.2002 17.1454C10.6924 17.1454 11.1494 16.9344 11.501 16.5829L17.6885 10.2899C19.5518 8.35632 19.9385 4.73523 17.3018 2.52039ZM16.458 9.0946L10.3057 15.3876C10.2354 15.4579 10.165 15.4579 10.0596 15.3876L3.90723 9.0946C2.60645 7.79382 2.36035 5.33289 4.15332 3.82117C5.52441 2.66101 7.63379 2.83679 8.96973 4.17273L10.2002 5.43835L11.4307 4.17273C12.7314 2.83679 14.8408 2.66101 16.2119 3.78601C18.0049 5.33289 17.7588 7.79382 16.458 9.0946Z" fill="#222429"/>
</svg>
