<svg width="27" height="25" viewBox="0 0 27 25" fill="none" xmlns="http://www.w3.org/2000/svg">
<g filter="url(#filter0_d_212:613)">
<path d="M13.2002 0.360229C8.20801 0.360229 4.2002 3.66492 4.2002 7.67273C4.2002 9.36023 4.86816 10.9071 6.02832 12.1376C5.53613 13.5087 4.44629 14.704 4.41113 14.704C4.16504 14.9501 4.12988 15.3016 4.23535 15.618C4.37598 15.9344 4.69238 16.1102 5.04395 16.1102C7.18848 16.1102 8.91113 15.2313 9.93066 14.493C10.9502 14.8094 12.04 14.9852 13.2002 14.9852C18.1572 14.9852 22.2002 11.7157 22.2002 7.67273C22.2002 3.66492 18.1572 0.360229 13.2002 0.360229ZM13.2002 13.2977C12.251 13.2977 11.3018 13.1571 10.4229 12.8759L9.61426 12.6298L8.94629 13.1219C8.4541 13.4735 7.75098 13.8602 6.90723 14.1415C7.18848 13.7196 7.43457 13.2274 7.61035 12.7352L7.99707 11.7509L7.25879 10.9774C6.62598 10.3094 5.8877 9.18445 5.8877 7.67273C5.8877 4.57898 9.15723 2.04773 13.2002 2.04773C17.208 2.04773 20.5127 4.57898 20.5127 7.67273C20.5127 10.8016 17.208 13.2977 13.2002 13.2977Z" fill="#222429"/>
</g>
<defs>
<filter id="filter0_d_212:613" x="0.129883" y="0.360229" width="26.0703" height="23.75" filterUnits="userSpaceOnUse" color-interpolation-filters="sRGB">
<feFlood flood-opacity="0" result="BackgroundImageFix"/>
<feColorMatrix in="SourceAlpha" type="matrix" values="0 0 0 0 0 0 0 0 0 0 0 0 0 0 0 0 0 0 127 0" result="hardAlpha"/>
<feOffset dy="4"/>
<feGaussianBlur stdDeviation="2"/>
<feComposite in2="hardAlpha" operator="out"/>
<feColorMatrix type="matrix" values="0 0 0 0 0 0 0 0 0 0 0 0 0 0 0 0 0 0 0.25 0"/>
<feBlend mode="normal" in2="BackgroundImageFix" result="effect1_dropShadow_212:613"/>
<feBlend mode="normal" in="SourceGraphic" in2="effect1_dropShadow_212:613" result="shape"/>
</filter>
</defs>
</svg>
