<svg width="156" height="34" viewBox="0 0 156 34" fill="none" xmlns="http://www.w3.org/2000/svg">
<path d="M80.944 22.716L74.86 9.72H77.248L82.06 20.436L86.98 9.72H89.26L81.196 27H78.88L80.944 22.716ZM95.1484 27.36C93.8604 27.36 92.7524 27.072 91.8244 26.496C90.9044 25.912 90.2004 25.104 89.7124 24.072C89.2324 23.04 88.9844 21.856 88.9684 20.52C88.9844 19.168 89.2364 17.976 89.7244 16.944C90.2204 15.912 90.9324 15.112 91.8604 14.544C92.7884 13.968 93.8924 13.68 95.1724 13.68C96.0764 13.68 96.9044 13.832 97.6564 14.136C98.4084 14.44 99.0444 14.876 99.5644 15.444C100.092 16.012 100.468 16.68 100.692 17.448L98.5804 18.084C98.3084 17.34 97.8644 16.76 97.2484 16.344C96.6404 15.92 95.9404 15.708 95.1484 15.708C93.8604 15.708 92.8884 16.144 92.2324 17.016C91.5844 17.888 91.2524 19.056 91.2364 20.52C91.2524 22.008 91.5924 23.184 92.2564 24.048C92.9284 24.904 93.8924 25.332 95.1484 25.332C96.8044 25.332 97.9324 24.576 98.5324 23.064L100.692 23.628C100.236 24.836 99.5324 25.76 98.5804 26.4C97.6284 27.04 96.4844 27.36 95.1484 27.36ZM101.95 25.164C102.118 25.196 102.294 25.212 102.478 25.212C102.798 25.212 103.05 25.14 103.234 24.996C103.418 24.844 103.558 24.632 103.654 24.36C103.75 24.088 103.838 23.72 103.918 23.256C104.102 22.192 104.258 20.924 104.386 19.452C104.522 17.972 104.654 16.168 104.782 14.04H113.842V27H111.706V16.068H106.726C106.438 19.988 106.142 22.72 105.838 24.264C105.71 24.936 105.546 25.48 105.346 25.896C105.146 26.312 104.874 26.628 104.53 26.844C104.194 27.052 103.762 27.156 103.234 27.156C102.914 27.156 102.486 27.104 101.95 27V25.164ZM126.333 14.04H128.505L121.449 32.76H119.373L121.509 26.952L116.253 14.04H118.497L122.541 24.24L126.333 14.04ZM130.847 14.04H139.847V16.068H132.983V27H130.847V14.04ZM153.088 27H151.024V17.448L144.232 27H142.468V14.04H144.532V23.46L151.336 14.04H153.088V27Z" fill="#222429" fill-opacity="0.95"/>
<path d="M5.925 12.175H0.25V9H15V12.175H9.325V27H5.925V12.175ZM24.726 13.5H28.126L20.501 33H17.351L19.576 26.8875L14.126 13.5H17.651L21.201 22.6875L24.726 13.5ZM33.5588 16.5H29.1338V13.5H41.3838V16.5H36.9588V27H33.5588V16.5Z" fill="#222429" fill-opacity="0.95"/>
<rect x="43" y="25" width="32.3327" height="2" fill="#00CD5E"/>
</svg>
