<svg width="20" height="18" viewBox="0 0 20 18" fill="none" xmlns="http://www.w3.org/2000/svg">
<path d="M17.0967 2.37653C15.0576 0.65387 11.9287 0.899963 9.99512 2.90387C8.02637 0.899963 4.89746 0.65387 2.8584 2.37653C0.22168 4.59137 0.608398 8.21246 2.50684 10.1461L8.65918 16.439C9.01074 16.7906 9.46777 17.0015 9.99512 17.0015C10.4873 17.0015 10.9443 16.7906 11.2959 16.439L17.4834 10.1461C19.3467 8.21246 19.7334 4.59137 17.0967 2.37653ZM16.2529 8.95074L10.1006 15.2437C10.0303 15.314 9.95996 15.314 9.85449 15.2437L3.70215 8.95074C2.40137 7.64996 2.15527 5.18903 3.94824 3.67731C5.31934 2.51715 7.42871 2.69293 8.76465 4.02887L9.99512 5.29449L11.2256 4.02887C12.5264 2.69293 14.6357 2.51715 16.0068 3.64215C17.7998 5.18903 17.5537 7.64996 16.2529 8.95074Z" fill="#222429"/>
</svg>
